<svg width="67" height="67" viewBox="0 0 67 67" fill="none" xmlns="http://www.w3.org/2000/svg">
<path d="M37 4C37 1.79086 38.7925 0 41.0017 0C49.0892 0 54.9108 0 62.9983 0C65.2075 0 67 1.79086 67 4V15V26C67 28.2091 65.2091 30 63 30H41C38.7909 30 37 28.2091 37 26V4Z" fill="#FFD791"/>
<path d="M0 4C0 1.79086 1.79252 0 4.00166 0C12.0892 0 17.9108 0 25.9983 0C28.2075 0 30 1.79086 30 4V15V26C30 28.2091 28.2091 30 26 30H4C1.79086 30 0 28.2091 0 26V4Z" fill="#FFB83E"/>
<path d="M0 41C0 38.7909 1.79252 37 4.00166 37C12.0892 37 17.9108 37 25.9983 37C28.2075 37 30 38.7909 30 41V52V63C30 65.2091 28.2091 67 26 67H4C1.79086 67 0 65.2091 0 63V41Z" fill="#FFD791"/>
<path d="M37 40.0757C37 38.377 38.3776 37 40.0769 37H63.9231C65.6224 37 67 38.377 67 40.0757V47.829C67 56.9919 57 67.4044 48.25 66.9879H40.0769C38.3776 66.9879 37 65.6109 37 63.9122V40.0757Z" fill="#FFB83E"/>
</svg>
