<svg width="162" height="52" viewBox="0 0 162 52" fill="none" xmlns="http://www.w3.org/2000/svg">
<path d="M1.056 6.56V5.216H10.512C16.816 5.248 20.176 5.296 20.592 5.36C21.168 5.456 21.792 5.584 22.464 5.744C25.504 6.64 27.68 8.336 28.992 10.832C29.6 11.984 29.936 13.184 30 14.432C30.032 15.744 29.76 16.992 29.184 18.176C28 20.64 25.92 22.368 22.944 23.36C22.56 23.488 22.192 23.6 21.84 23.696C21.04 23.888 19.712 24 17.856 24.032C16.736 24.032 16.064 24.032 15.84 24.032H11.472V29.456C11.472 33.104 11.488 34.944 11.52 34.976C11.648 35.2 12.832 35.312 15.072 35.312H16.416V36.656V38H15.888L12.048 37.904C9.84 37.872 7.632 37.872 5.424 37.904L1.584 38H1.056V36.656V35.312H2.4C4.64 35.312 5.824 35.2 5.952 34.976V8.24C5.824 8.016 4.64 7.904 2.4 7.904H1.056V6.56ZM19.152 8C18.928 7.968 17.712 7.936 15.504 7.904C13.072 7.904 11.76 7.952 11.568 8.048C11.44 8.112 11.36 8.512 11.328 9.248C11.328 9.856 11.328 11.76 11.328 14.96V21.584H14.976C17.632 21.552 19.296 21.456 19.968 21.296C21.888 20.88 23.072 19.888 23.52 18.32C23.712 17.744 23.808 16.56 23.808 14.768C23.84 13.2 23.776 12.064 23.616 11.36C23.392 10.496 22.976 9.808 22.368 9.296C21.6 8.656 20.528 8.224 19.152 8ZM42.5119 16.544C43.1199 16.448 44.0159 16.48 45.1999 16.64C46.9279 16.928 48.3679 17.648 49.5199 18.8C50.7359 20.016 51.5359 21.68 51.9199 23.792C52.0479 24.688 52.1119 25.504 52.1119 26.24C52.1119 26.464 52.0479 26.64 51.9199 26.768L51.7759 26.912H45.2479H38.7199V27.728C38.7199 30.16 39.0559 31.952 39.7279 33.104C40.4639 34.384 41.5839 35.264 43.0879 35.744C43.8559 35.968 44.6079 36.08 45.3439 36.08C45.8559 36.08 46.2239 36.048 46.4479 35.984C47.9839 35.536 49.0399 34.352 49.6159 32.432C49.6799 32.176 49.7759 31.984 49.9039 31.856L50.0479 31.712H50.9119H51.7759L51.9199 31.856C52.1119 32.016 52.1279 32.352 51.9679 32.864C51.6799 33.696 51.2959 34.432 50.8159 35.072C50.3359 35.808 49.6959 36.448 48.8959 36.992C47.6479 37.92 46.1759 38.432 44.4799 38.528C41.5999 38.624 39.0879 37.632 36.9439 35.552C36.0799 34.72 35.3279 33.696 34.6879 32.48C33.8879 30.816 33.5039 29.024 33.5359 27.104C33.5679 25.44 33.9679 23.808 34.7359 22.208C36.1759 19.296 38.3999 17.472 41.4079 16.736C41.7599 16.64 42.1279 16.576 42.5119 16.544ZM44.4319 18.896C44.0159 18.768 43.4719 18.736 42.7999 18.8C41.1679 19.152 40.0159 20.16 39.3439 21.824C38.9919 22.816 38.8159 23.712 38.8159 24.512V24.704H43.2319H47.6479V24.32C47.5519 23.168 47.2799 22.096 46.8319 21.104C46.2559 19.984 45.4559 19.248 44.4319 18.896ZM57.648 17.072C60.336 16.88 61.616 16.784 61.488 16.784H61.632V17.936V19.088L61.824 18.848C62.144 18.368 62.544 17.968 63.024 17.648C63.376 17.392 63.904 17.152 64.608 16.928C65.216 16.768 65.872 16.736 66.576 16.832C68.304 17.024 69.488 17.712 70.128 18.896C70.736 20.048 70.672 21.104 69.936 22.064C69.744 22.32 69.488 22.528 69.168 22.688C68.784 22.88 68.352 22.976 67.872 22.976C67.36 22.976 66.912 22.88 66.528 22.688C65.568 22.208 65.12 21.392 65.184 20.24C65.184 19.952 65.232 19.68 65.328 19.424C65.424 19.2 65.472 19.072 65.472 19.04L65.136 19.136C63.28 19.52 62.208 21.6 61.92 25.376V34.976C62.016 35.168 62.944 35.28 64.704 35.312H66.528V36.656V38H66.096C66.128 38 64.992 37.968 62.688 37.904C60.704 37.872 58.864 37.872 57.168 37.904C55.216 37.968 54.224 38 54.192 38H53.76V36.656V35.312H54.768C56.432 35.312 57.328 35.2 57.456 34.976V21.632C57.328 20.864 56.928 20.384 56.256 20.192C55.904 20.096 55.36 20.032 54.624 20H53.76V18.656C53.76 17.76 53.792 17.312 53.856 17.312L57.648 17.072ZM84.7009 4.208C85.5649 4.144 86.2049 4.16 86.6209 4.256C88.0289 4.544 88.9729 5.408 89.4529 6.848C89.5809 7.2 89.6609 7.568 89.6929 7.952C89.7569 8.816 89.5009 9.536 88.9249 10.112C88.4129 10.592 87.7729 10.832 87.0049 10.832L86.3329 10.784H86.2849C85.0369 10.4 84.3809 9.568 84.3169 8.288C84.3169 8.192 84.3169 8.096 84.3169 8C84.3489 7.552 84.4929 7.104 84.7489 6.656L84.8929 6.416H84.5569C83.5969 6.512 82.7489 6.928 82.0129 7.664C81.1809 8.528 80.6529 9.568 80.4289 10.784C80.3969 10.976 80.3649 12.144 80.3329 14.288V17.312H82.8769H85.4209V18.656V20H82.9729H80.4769V27.44C80.4769 32.432 80.4929 34.944 80.5249 34.976C80.6209 35.168 81.5489 35.28 83.3089 35.312H85.1329V36.656V38H84.7009C84.7329 38 83.5969 37.968 81.2929 37.904C79.3089 37.872 77.4689 37.872 75.7729 37.904C73.8209 37.968 72.8289 38 72.7969 38H72.3649V36.656V35.312H73.3729C75.0369 35.312 75.9329 35.2 76.0609 34.976C76.0929 34.944 76.1089 32.432 76.1089 27.44V20H74.5249H72.9409V18.656V17.312H74.5249H76.1089V14.288C76.1409 12.08 76.2209 10.784 76.3489 10.4C76.3809 10.336 76.4289 10.208 76.4929 10.016C77.1969 7.776 78.8289 6.128 81.3889 5.072C82.4449 4.624 83.5489 4.336 84.7009 4.208Z" fill="#FFD791"/>
<path d="M113.848 4.208H115.96C118.584 4.464 120.648 5.6 122.152 7.616C122.312 7.808 122.408 7.92 122.44 7.952C122.408 7.952 122.936 7.44 124.024 6.416C125.4 5.104 126.056 4.48 125.992 4.544L126.376 4.16H126.76C127.176 4.16 127.416 4.256 127.48 4.448C127.512 4.512 126.984 6.784 125.896 11.264C124.744 15.872 124.168 18.128 124.168 18.032C124.104 18.224 123.656 18.32 122.824 18.32H121.816L121.672 18.176C121.544 18.048 121.512 17.76 121.576 17.312C121.576 17.28 121.592 17.12 121.624 16.832C121.944 14.528 121.752 12.48 121.048 10.688C120.28 8.576 118.904 7.328 116.92 6.944C116.344 6.816 115.464 6.8 114.28 6.896C114.184 6.928 114.104 6.944 114.04 6.944C111.192 7.36 108.584 8.48 106.216 10.304C103.016 12.928 100.808 17.04 99.592 22.64C99.176 24.336 98.968 25.968 98.968 27.536C98.968 29.008 99.16 30.24 99.544 31.232C99.672 31.648 99.928 32.144 100.312 32.72C101.72 34.832 103.976 36.032 107.08 36.32C108.904 36.512 110.664 36.176 112.36 35.312C115.08 34 117.192 31.84 118.696 28.832C119.08 28.032 119.4 27.216 119.656 26.384C119.816 25.872 119.976 25.6 120.136 25.568C120.232 25.536 120.504 25.52 120.952 25.52C121.688 25.52 122.088 25.616 122.152 25.808C122.184 25.936 122.152 26.16 122.056 26.48C121.512 28.368 120.664 30.112 119.512 31.712C118.616 32.992 117.624 34.08 116.536 34.976C113.816 37.376 110.792 38.72 107.464 39.008C106.504 39.136 105.512 39.104 104.488 38.912C101.352 38.528 98.824 37.296 96.904 35.216C95.048 33.264 93.928 30.832 93.544 27.92C93.352 26.608 93.368 25.12 93.592 23.456C94.168 19.328 95.96 15.52 98.968 12.032C100.088 10.816 101.016 9.92 101.752 9.344C104.952 6.688 108.392 5.04 112.072 4.4C112.232 4.368 112.824 4.304 113.848 4.208ZM127.809 5.312L127.953 5.216H128.625C131.633 5.376 135.313 5.392 139.665 5.264C140.721 5.232 141.313 5.328 141.441 5.552C141.505 5.648 141.457 6.016 141.297 6.656C141.105 7.36 140.945 7.744 140.817 7.808C140.721 7.84 140.353 7.872 139.713 7.904C138.945 7.968 138.433 8 138.177 8C137.505 8.128 137.105 8.24 136.977 8.336C136.945 8.368 137.345 12.192 138.177 19.808C139.009 27.456 139.441 31.328 139.473 31.424C139.473 31.456 139.521 31.408 139.617 31.28C139.905 30.864 142.081 27.344 146.145 20.72C150.657 13.232 152.897 9.536 152.865 9.632C152.993 9.312 153.041 9.056 153.009 8.864C152.849 8.32 152.145 8 150.897 7.904C150.417 7.904 150.113 7.792 149.985 7.568C149.953 7.472 150.001 7.104 150.129 6.464C150.289 5.856 150.433 5.488 150.561 5.36L150.705 5.216H151.281C153.937 5.344 156.417 5.376 158.721 5.312L161.073 5.216H161.409L161.553 5.36C161.681 5.488 161.745 5.616 161.745 5.744C161.745 6.256 161.585 6.88 161.265 7.616C161.201 7.808 160.849 7.904 160.209 7.904C158.609 8 157.361 8.368 156.465 9.008C156.209 9.232 155.905 9.568 155.553 10.016C155.329 10.336 152.385 15.136 146.721 24.416C140.929 33.888 138.017 38.64 137.985 38.672C137.985 38.704 137.857 38.8 137.601 38.96C137.441 39.024 137.009 39.056 136.305 39.056C135.633 39.056 135.217 39.008 135.057 38.912C134.961 38.816 134.913 38.736 134.913 38.672C134.913 38.48 134.337 33.408 133.185 23.456C132.097 13.344 131.521 8.256 131.457 8.192C131.425 8.16 131.313 8.112 131.121 8.048C130.737 7.952 129.873 7.904 128.529 7.904C127.761 7.904 127.345 7.808 127.281 7.616C127.217 7.52 127.249 7.152 127.377 6.512C127.537 5.84 127.681 5.44 127.809 5.312Z" fill="#FFB83E"/>
</svg>
